<svg width="64" height="64" xmlns="http://www.w3.org/2000/svg"><path d="M32.374 64a4.887 4.887 0 0 1-2.459-.662l-7.83-4.633c-1.17-.653-.6-.887-.213-1.02 1.56-.544 1.876-.67 3.54-1.61.174-.098.402-.062.582.044l6.013 3.573c.22.12.53.12.727 0l23.454-13.537a.733.733 0 0 0 .36-.636V18.452a.756.756 0 0 0-.363-.647L32.74 4.28a.75.75 0 0 0-.724 0L8.574 17.808a.765.765 0 0 0-.369.644v27.067c0 .26.145.506.37.627l6.423 3.714c3.487 1.74 5.624-.31 5.624-2.373V20.76c0-.376.304-.674.68-.674h2.975c.37 0 .677.298.677.674v26.727c0 4.652-2.533 7.32-6.944 7.32-1.357 0-2.423 0-5.402-1.466l-6.15-3.54A4.954 4.954 0 0 1 4 45.522V18.455c0-1.759.937-3.399 2.459-4.273L29.912.627c1.484-.836 3.455-.836 4.926 0l23.454 13.555a4.95 4.95 0 0 1 2.462 4.273v27.067a4.966 4.966 0 0 1-2.462 4.28L34.838 63.34a4.88 4.88 0 0 1-2.464.659zm7.248-18.649c-10.268 0-12.416-4.713-12.416-8.664a.68.68 0 0 1 .68-.677h3.031c.34 0 .62.243.674.574.455 3.088 1.823 4.645 8.031 4.645 4.938 0 7.042-1.117 7.042-3.741 0-1.513-.597-2.633-8.274-3.387-6.418-.635-10.387-2.05-10.387-7.19 0-4.73 3.99-7.555 10.674-7.555 7.514 0 11.232 2.61 11.702 8.206a.693.693 0 0 1-.178.52.698.698 0 0 1-.496.216h-3.047a.674.674 0 0 1-.659-.53c-.733-3.25-2.506-4.287-7.325-4.287-5.393 0-6.02 1.882-6.02 3.286 0 1.705.74 2.202 8.023 3.165 7.208.954 10.632 2.302 10.632 7.37.003 5.12-4.258 8.049-11.687 8.049z" fill="#3C3C3C" fill-rule="nonzero"/></svg>