<svg width="64" height="33" xmlns="http://www.w3.org/2000/svg"><path d="M5.06 6.953h9.49c2.786.023 4.805.822 6.056 2.396 1.252 1.575 1.665 3.725 1.24 6.45a12.333 12.333 0 0 1-1.098 3.666 10.894 10.894 0 0 1-2.266 3.242c-1.18 1.222-2.444 1.997-3.79 2.326a17.535 17.535 0 0 1-4.179.494h-4.25l-1.345 6.696H-.005l5.064-25.27m4.144 4.018L7.078 21.544c.142.023.283.035.425.035h.496c2.266.024 4.155-.2 5.666-.67 1.511-.493 2.526-2.208 3.046-5.145.425-2.467 0-3.889-1.275-4.265-1.251-.376-2.821-.552-4.71-.528a9.857 9.857 0 0 1-.815.035h-.744l.036-.035M27.455.223h4.887l-1.381 6.732h4.391c2.409.047 4.203.54 5.384 1.48 1.204.94 1.558 2.726 1.062 5.357L39.425 25.53h-4.958l2.267-11.208c.236-1.175.165-2.01-.213-2.503-.378-.493-1.192-.74-2.443-.74l-3.932-.035-2.903 14.486h-4.888l5.1-25.306m19.592 6.73h9.491c2.786.023 4.805.822 6.056 2.396 1.251 1.575 1.664 3.725 1.24 6.45a12.335 12.335 0 0 1-1.098 3.666 10.894 10.894 0 0 1-2.267 3.242c-1.18 1.222-2.444 1.997-3.79 2.326a17.535 17.535 0 0 1-4.178.494h-4.25l-1.346 6.696h-4.923l5.065-25.27m4.143 4.018l-2.125 10.573c.142.023.284.035.425.035h.496c2.267.024 4.155-.2 5.666-.67 1.511-.493 2.527-2.208 3.046-5.145.425-2.467 0-3.889-1.275-4.265-1.251-.376-2.821-.552-4.71-.528a9.857 9.857 0 0 1-.815.035h-.743l.035-.035" fill="#3C3C3C" fill-rule="nonzero"/></svg>
