<svg width="64" height="64" xmlns="http://www.w3.org/2000/svg"><g fill="#3C3C3C" fill-rule="nonzero"><path d="M31.604 0C15.44 0 16.45 7.073 16.45 7.073l.018 7.327h15.424v2.2h-21.55S0 15.416 0 31.873c0 16.456 9.027 15.872 9.027 15.872h5.387V40.11S14.124 31 23.297 31h15.298s8.594.14 8.594-8.382V8.528S48.494 0 31.604 0zm-8.505 4.927c1.535 0 2.775 1.252 2.775 2.8 0 1.549-1.24 2.8-2.775 2.8-1.534 0-2.775-1.251-2.775-2.8 0-1.548 1.24-2.8 2.775-2.8z"/><path d="M32.063 63.91c16.162 0 15.153-7.072 15.153-7.072l-.018-7.328H31.774v-2.2h21.55s10.342 1.184 10.342-15.272c0-16.457-9.027-15.873-9.027-15.873h-5.387v7.636s.29 9.11-8.883 9.11H25.072s-8.595-.14-8.595 8.381v14.091s-1.305 8.527 15.586 8.527zm8.504-4.927c-1.534 0-2.775-1.251-2.775-2.8 0-1.548 1.24-2.8 2.775-2.8s2.775 1.252 2.775 2.8c0 1.549-1.24 2.8-2.775 2.8z"/></g></svg>
