<svg width="64" height="64" xmlns="http://www.w3.org/2000/svg"><path d="M43.41 37.41L19.8 52.692l35.67 4.891L43.41 37.41zm15.436-22.482c-1.054 1.589-2.11 3.177-3.162 4.767a28237.81 28237.81 0 0 0-10.839 16.388c-.201.305-.462.546-.178 1.015 3.489 5.787 6.95 11.592 10.42 17.39.547.916 1.1 1.828 1.81 2.707L59 14.973l-.154-.045zM11.218 32.97c.164.155.571.245.76.152 3.347-1.653 6.715-3.268 9.989-5.057 1.067-.582 1.887-1.627 2.807-2.474 3.046-2.805 6.086-5.617 9.126-8.429.186-.172.405-.339.517-.557 1.092-2.143 2.164-4.297 3.275-6.514-1.325-.498-2.58-.988-3.851-1.434-.173-.06-.444.06-.632.165-2.942 1.651-5.94 3.214-8.789 5.015-1.426.9-2.587 2.228-3.85 3.385a524.48 524.48 0 0 0-6.07 5.631 10.446 10.446 0 0 0-1.43 1.685c-1.372 2.005-2.701 4.039-4.093 6.131.779.81 1.485 1.582 2.241 2.3zm12.231-2.742l-5.03 21.344 23.633-15.295c-6.192-2.014-12.365-4.02-18.603-6.05zm13.266-11.863l6.817 16.654c4.45-6.713 8.81-13.294 13.27-20.025l-20.087 3.37zM23.73 28.784l18.232 5.945-6.744-16.497L23.73 28.784zM11.47 37.09L5.089 52.412l12.153-.36-5.771-14.962zm5.916 11.408l.15-.033c1.46-6.095 2.94-12.147 4.43-18.48l-9.75 5.09c1.661 4.34 3.434 8.917 5.17 13.423zm36.962-34.49c-1.941-.517-3.88-1.036-5.823-1.548-2.79-.737-5.583-1.465-8.372-2.21-.348-.092-.6-.152-.806.27-.985 2.028-2.002 4.041-3.003 6.062-.031.063-.025.144-.049.3l18.05-2.747.003-.128zM43.09 9.392l15.817 4.395-2.613-7.48-13.18 2.936-.024.149zm4.788 48.426l-12.977-1.78c-5.39-.739-10.771-1.552-16.174-2.178-1.959-.226-3.97-.017-5.957.016-1.632.028-3.265.09-4.896.143a.646.646 0 0 0-.503.22L47.85 58l.029-.181zM5.355 47.735c1.74-4.052 3.47-8.108 5.216-12.156.175-.407.163-.683-.18-1.01-.73-.698-1.408-1.45-2.207-2.284L5 48.072l.117.056c.081-.13.179-.252.238-.393zM39.626 8.323c2.932-.76 5.907-1.353 8.865-2.017.19-.043.378-.106.566-.16L49.028 6 36.322 7.717c1.194.524 2.113.915 3.304.606z" fill="#3C3C3C" fill-rule="nonzero"/></svg>