<svg xmlns="http://www.w3.org/2000/svg" width="56" height="57" viewBox="0 0 56 57">
  <path fill="#3C3C3C" d="M25.7790763,6.48021711 C25.7790763,5.81906531 26.1773057,5.22301479 26.7880707,4.97000295 C27.3988358,4.71699111 28.1018567,4.85684432 28.5693161,5.32434923 C29.0367754,5.79185415 29.1766149,6.49494368 28.9236278,7.10576829 C28.6706406,7.7165929 28.0746482,8.11486113 27.4135609,8.11486113 C26.51086,8.11486113 25.7790763,7.38300607 25.7790763,6.48021711 Z M6.28313261,21.2823903 C6.28313261,20.3796013 7.01491629,19.6477463 7.91761721,19.6477463 C8.82031813,19.6477463 9.55210181,20.3796013 9.55210181,21.2823903 C9.55210181,22.1851793 8.82031813,22.9170343 7.91761721,22.9170343 C7.48412494,22.9170343 7.06838739,22.7448134 6.76186207,22.4382582 C6.45533675,22.1317029 6.28313261,21.7159248 6.28313261,21.2823903 Z M45.2907362,21.3590142 C45.2907362,20.4562253 46.0225199,19.7243702 46.9252208,19.7243702 C47.8279217,19.7243702 48.5597054,20.4562253 48.5597054,21.3590142 C48.5597054,22.2618032 47.8279217,22.9936583 46.9252208,22.9936583 C46.0225199,22.9936583 45.2907362,22.2618032 45.2907362,21.3590142 Z M11.0078147,23.5987909 C11.7579734,23.2640243 12.0968216,22.3860934 11.7661212,21.6340745 L11.0412116,19.9935364 L13.8937015,19.9935364 L13.8937015,32.852605 L8.13764398,32.852605 C7.42713036,30.3572393 7.20565994,27.7480365 7.48542176,25.1685993 L11.0078147,23.5987909 Z M22.940338,23.9151102 L22.940338,20.1251723 L29.7336646,20.1251723 C30.0853146,20.1251723 32.2109304,20.5299039 32.2109304,22.1213242 C32.2109304,23.4416136 30.5803748,23.9151102 29.2386044,23.9151102 L22.940338,23.9151102 Z M13.6658167,44.3226193 C13.6658167,43.4198303 14.3976003,42.6879752 15.3003013,42.6879752 C16.2030022,42.6879752 16.9347859,43.4198303 16.9347859,44.3226193 C16.9347859,45.2254082 16.2030022,45.9572633 15.3003013,45.9572633 C14.866809,45.9572633 14.4510714,45.7850424 14.1445461,45.4784871 C13.8380208,45.1719319 13.6658167,44.7561538 13.6658167,44.3226193 Z M37.8903714,44.3992432 C37.8903714,43.4964542 38.6221551,42.7645992 39.524856,42.7645992 C40.427557,42.7645992 41.1593406,43.4964542 41.1593406,44.3992432 C41.1593406,45.3020322 40.427557,46.0338872 39.524856,46.0338872 C39.0913638,46.0338872 38.6756262,45.8616663 38.3691009,45.5551111 C38.0625756,45.2485558 37.8903714,44.8327777 37.8903714,44.3992432 Z M38.3952543,40.6918234 C37.5902791,40.5208007 36.7989606,41.0343286 36.627182,41.8392178 L35.8060107,45.66845 C30.4656793,48.0878213 24.336018,48.0584075 19.0191466,45.5878966 L18.1999398,41.7586644 C18.117477,41.3722206 17.8848294,41.0343941 17.5532178,40.8195626 C17.2216063,40.604731 16.8182189,40.530508 16.4318675,40.6132347 L13.0509204,41.3401798 C12.4226021,40.6931333 11.8384768,40.0045859 11.3024934,39.2791923 L27.7534237,39.2791923 C27.9400535,39.2791923 28.0638186,39.2457921 28.0638186,39.0827207 L28.0638186,33.2553719 C28.0638186,33.0864063 27.9400535,33.0589003 27.7534237,33.0589003 L22.940338,33.0589003 L22.940338,29.3632688 L28.1443641,29.3632688 C29.7465093,29.3793202 31.101194,30.5536611 31.344575,32.1374483 C31.5508501,32.9488761 32.0046553,35.589455 32.3150502,36.434283 C32.6234806,37.383241 33.88667,39.2772276 35.2264759,39.2772276 L43.7191164,39.2772276 C43.1495868,40.0408335 42.5265764,40.7630445 41.8547824,41.4384156 L38.3952543,40.6918234 Z M47.5302944,25.3257766 C47.6460083,26.4873963 47.6604693,27.6568808 47.573514,28.821007 L45.5087985,28.821007 C45.3025234,28.821007 45.2180488,28.9565725 45.2180488,29.1589383 L45.2180488,30.1078963 C45.2180488,32.3398141 43.9587884,32.8270637 42.8606191,32.9508409 C41.8095983,33.0687238 40.6446352,32.5107444 40.5031894,31.8682821 C40.3495299,29.6115243 39.1304973,27.5628245 37.2204685,26.3513585 C39.243929,25.066434 41.3459705,23.1704827 41.3459705,20.6320692 C41.2589646,18.4429761 40.0701462,16.4466311 38.1870147,15.327335 C36.8927025,14.4892527 35.4040772,13.9993118 33.8650602,13.9048803 L12.5047825,13.9048803 C15.4566119,10.6020991 19.4153386,8.36530045 23.767403,7.54116395 L26.2859237,10.1817428 C26.5586914,10.4682566 26.9342382,10.6344565 27.3297019,10.6436714 C27.7251656,10.6528863 28.1080445,10.5043588 28.3938588,10.2308607 L31.2109873,7.5352698 C37.0248419,8.62559141 42.0648589,12.2182562 44.9921284,17.3588517 L43.0629651,21.7146279 C42.7334247,22.4666731 43.0719544,23.3437788 43.8212717,23.6793443 L47.5302944,25.3257766 Z M52.339451,25.3965064 L52.2746217,24.7226087 L54.2607563,22.8698811 C54.447014,22.6750906 54.5266956,22.4017587 54.4742945,22.1373808 C54.4218933,21.8730028 54.2439816,21.6507373 53.9975099,21.5417329 L51.467202,20.5927748 L51.2707496,19.9365596 L52.8541565,17.7360772 C52.9980923,17.5088729 53.0225787,17.2258636 52.9198061,16.9773096 C52.8170336,16.7287555 52.5998369,16.5456973 52.3374865,16.4865176 L49.6598393,16.0503506 L49.3376572,15.4491474 L50.4633299,12.9794989 C50.5625753,12.7284809 50.5324674,12.4447517 50.3827524,12.2201573 C50.2330374,11.995563 49.982739,11.8586417 49.7128814,11.8537164 L46.9959437,11.9480228 L46.5558902,11.4293377 L47.180609,8.7828647 C47.2268108,8.51759712 47.1410142,8.2464402 46.9506359,8.05604336 C46.7602577,7.86564653 46.4891272,7.77984156 46.2238855,7.82604783 L43.5757061,8.44493348 L43.0531425,8.0146606 L43.1494042,5.30138728 C43.1430501,5.0324041 43.0062755,4.78331954 42.7827285,4.6336222 C42.5591814,4.48392486 42.276799,4.45232278 42.0256961,4.54890091 L39.5562884,5.67468339 L38.9551439,5.35246991 L38.5190194,2.67456148 C38.4598455,2.41218555 38.2768051,2.19496763 38.0282753,2.09218506 C37.7797455,1.9894025 37.4967638,2.01389123 37.2695816,2.15784108 L35.0673494,3.74140248 L34.4131626,3.54493084 L33.4642972,1.00455256 C33.355516,0.758480889 33.1338614,0.58069717 32.8700637,0.527932483 C32.606266,0.475167796 32.3332901,0.554015756 32.138243,0.739315851 L30.2856961,2.72760883 L29.6118641,2.66277319 L28.1816901,0.350302009 C28.0267284,0.130643044 27.7746942,0 27.5058936,0 C27.237093,0 26.9850587,0.130643044 26.8300971,0.350302009 L25.399923,2.66277319 L24.726091,2.72760883 L22.8735442,0.739315851 C22.6784971,0.554015756 22.4055212,0.475167796 22.1417235,0.527932483 C21.8779257,0.58069717 21.6562711,0.758480889 21.54749,1.00455256 L20.5907664,3.53314254 L19.9365797,3.72961418 L17.736312,2.15784108 C17.5091298,2.01389123 17.2261481,1.9894025 16.9776183,2.09218506 C16.7290885,2.19496763 16.5460481,2.41218555 16.4868742,2.67456148 L16.0507497,5.35246991 L15.4496051,5.67468339 L12.978233,4.54890091 C12.7271337,4.45134614 12.4442277,4.48252156 12.2203909,4.63241287 C11.9965542,4.78230418 11.8599746,5.03203555 11.8545248,5.30138728 L11.948822,8.01859003 L11.4262584,8.44493348 L8.78004358,7.82408311 C8.51480187,7.77787684 8.24367139,7.86368181 8.05329313,8.05407865 C7.86291487,8.24447548 7.77711827,8.5156324 7.82332002,8.78089998 L8.44410985,11.4293377 L8.01584345,11.9499875 L5.30087023,11.8556811 C5.03177447,11.8627015 4.78283909,11.9999505 4.63325055,12.2237693 C4.48366201,12.4475881 4.45204513,12.7301096 4.54845725,12.9814636 L5.67412994,15.4511121 L5.35194788,16.0523153 L2.67430063,16.4884823 C2.41195028,16.547662 2.19475356,16.7307203 2.09198101,16.9792743 C1.98920847,17.2278283 2.01369482,17.5108376 2.15763062,17.7380419 L3.74103758,19.9385243 L3.5445851,20.5947396 L1.00445459,21.5436976 C0.75798295,21.6527021 0.580071196,21.8749676 0.527670036,22.1393455 C0.475268875,22.4037234 0.554950488,22.6770553 0.741208271,22.8718458 L2.7273428,24.7245734 L2.66251348,25.3984711 L0.350267844,26.8287846 C0.130630302,26.9837614 8.72424248e-16,27.2358202 0,27.5046471 C-8.72424248e-16,27.7734739 0.130630302,28.0255327 0.350267844,28.1805095 L2.66251348,29.610823 L2.7273428,30.2847207 L0.741208271,32.1374483 C0.555808144,32.3322397 0.476672068,32.6050142 0.529032754,32.8687971 C0.581393439,33.13258 0.758713702,33.3544383 1.00445459,33.4636318 L3.5445851,34.4125898 L3.74103758,35.0688051 L2.15763062,37.2712522 C2.01369703,37.4987309 1.98945589,37.7820303 2.09265027,38.0306592 C2.19584466,38.2792881 2.4135642,38.4621412 2.67626516,38.5208118 L5.3539124,38.9569788 L5.67609446,39.5601468 L4.55042178,42.0297952 C4.45303855,42.2811457 4.48423108,42.5641873 4.63401192,42.7882938 C4.78379277,43.0124003 5.0333709,43.1494561 5.30283476,43.1555777 L8.0197725,43.0612713 L8.45000342,43.5838859 L7.82724907,46.2323236 C7.78082273,46.4974724 7.86663003,46.7686019 8.05714842,46.9587476 C8.24766681,47.1488933 8.51894563,47.2341515 8.78397263,47.1871757 L11.4262584,46.5604312 L11.948822,46.9887394 L11.8525603,49.7039774 C11.8586386,49.9729792 11.9954753,50.2221235 12.2192133,50.3715574 C12.4429512,50.5209914 12.725488,50.5519456 12.9762685,50.4544991 L15.4456761,49.3287166 L16.0468207,49.6509301 L16.4829452,52.3268738 C16.54161,52.5896004 16.7244453,52.8073411 16.9730499,52.9105456 C17.2216546,53.01375 17.5049264,52.9895065 17.7323829,52.8455589 L19.9326506,51.2600328 L20.5888019,51.4565044 L21.5376674,53.994918 C21.6468503,54.2406828 21.8686869,54.4180204 22.1324441,54.4703862 C22.3962012,54.522752 22.6689492,54.4436082 22.8637216,54.25819 L24.7162684,52.2718617 L25.3901004,52.3386621 L26.8202744,54.6511333 C26.9757729,54.8699926 27.2276126,55 27.496071,55 C27.7645293,55 28.016369,54.8699926 28.1718675,54.6511333 L29.6020415,52.3386621 L30.2758735,52.2718617 L32.1284203,54.25819 C32.3231927,54.4436082 32.5959407,54.522752 32.8596978,54.4703862 C33.123455,54.4180204 33.3452916,54.2406828 33.4544745,53.994918 L34.40334,51.4565044 L35.0594913,51.2600328 L37.259759,52.8455589 C37.4872155,52.9895065 37.7704873,53.01375 38.019092,52.9105456 C38.2676966,52.8073411 38.4505319,52.5896004 38.5091967,52.3268738 L38.9453212,49.6509301 L39.5464658,49.3287166 L42.0158734,50.4544991 C42.2666539,50.5519456 42.5491907,50.5209914 42.7729286,50.3715574 C42.9966666,50.2221235 43.1335033,49.9729792 43.1395816,49.7039774 L43.0452844,46.9848099 L43.5658835,46.5565018 L46.2120983,47.1793169 C46.4771253,47.2262927 46.7484041,47.1410345 46.9389225,46.9508887 C47.1294409,46.760743 47.2152482,46.4896136 47.1688219,46.2244647 L46.5558902,43.5799565 L46.9841566,43.0573419 L49.7010943,43.1516483 C49.970208,43.1449007 50.2192006,43.0075887 50.368525,42.7835804 C50.5178493,42.559572 50.5488201,42.276898 50.4515427,42.0258658 L49.3258701,39.5562173 L49.6480521,38.9530494 L52.3256994,38.5168824 C52.5885884,38.458516 52.8064568,38.2755217 52.9093624,38.026646 C53.012268,37.7777702 52.987261,37.4943318 52.8423694,37.2673227 L51.2589624,35.0668404 L51.4554149,34.4106251 L53.9955454,33.4616671 C54.2419729,33.353166 54.4199641,33.1312396 54.4723925,32.8671154 C54.524821,32.6029912 54.4450909,32.3298974 54.2587917,32.1354836 L52.2726572,30.282756 L52.3374865,29.6088583 L54.6497322,28.1785448 C54.8693697,28.023568 55,27.7715092 55,27.5026823 C55,27.2338555 54.8693697,26.9817967 54.6497322,26.8268199 L52.339451,25.3965064 Z" transform="translate(1 1)"/>
</svg>
