<svg xmlns="http://www.w3.org/2000/svg" width="63" height="48" viewBox="0 0 63 48">
  <g fill="#3B3B3B" fill-rule="evenodd">
    <path d="M31.5,42 C14.1030836,42 0,32.597991 0,21.0000435 C0,9.40200896 14.1030836,0 31.5,0 C48.8970037,0 63,9.40200896 63,21.0000435 C63,32.597991 48.8970037,42 31.5,42 Z M36.349475,8.17391304 C23.1268329,8.17391304 12.407767,14.597659 12.407767,22.5217391 C12.407767,30.4458193 23.1268329,36.8695652 36.349475,36.8695652 C49.5720298,36.8695652 59.3300971,32.4778152 59.3300971,22.5217391 C59.3300971,12.568792 49.5720298,8.17391304 36.349475,8.17391304 Z"/>
    <path d="M48.7939698,32.3097921 C48.7939698,32.3097921 50.7678191,32.8772912 51.9145729,33.4301396 C52.3124724,33.6219775 53.0009045,34.0047916 53.4974874,34.5073968 C53.9839397,34.9996602 54.2211055,35.4984734 54.2211055,35.4984734 L62,47.9946568 L49.4271357,48 L43.5477387,37.4806266 C43.5477387,37.4806266 42.3438191,35.509763 41.6030151,34.9382996 C40.9850452,34.4616349 40.7215578,34.2919453 40.1105528,34.2919453 C39.6852462,34.2919453 37.1232764,34.2919453 37.1232764,34.2919453 L37.1256281,47.9924161 L26,47.9968975 L26,13 L48.3417085,13 C48.3417085,13 58.5175879,13.1748604 58.5175879,22.3990259 C58.5175879,31.6231914 48.7939698,32.3097921 48.7939698,32.3097921 Z M43.9547739,20.5903418 L37.2194271,20.5862069 L37.2160804,26.5344828 L43.9547739,26.5324153 C43.9547739,26.5324153 47.0753769,26.5231978 47.0753769,23.5065907 C47.0753769,20.4293378 43.9547739,20.5903418 43.9547739,20.5903418 Z"/>
  </g>
</svg>
