<svg width="64" height="64" xmlns="http://www.w3.org/2000/svg"><path d="M46.764 54.5c-6.99 4.039-16.602 4.454-26.273.31C12.661 51.477 6.165 45.646 2 38.983c2 1.666 4.331 2.999 6.83 4.164 9.987 4.681 19.971 4.36 26.998.012a.075.075 0 0 1-.01-.012c-9.996-7.663-18.492-17.659-24.822-25.82-1.333-1.333-2.333-3-3.332-4.499 7.663 6.997 19.824 15.826 24.155 18.326C22.658 21.492 14.494 9.498 14.827 9.83 29.32 24.49 42.815 32.82 42.815 32.82c.446.25.79.46 1.068.648.292-.743.548-1.514.764-2.314 2.332-8.496-.333-18.16-6.164-26.155 13.493 8.163 21.49 23.488 18.157 36.316-.087.346-.181.688-.283 1.023l.117.144c6.663 8.33 4.83 17.159 3.998 15.493-3.615-7.073-10.306-4.91-13.707-3.475z" fill="#3C3C3C" fill-rule="nonzero"/></svg>